<svg width="295" height="307" viewBox="0 0 295 307" fill="none" xmlns="http://www.w3.org/2000/svg">
<path d="M262.051 233.636L262.045 233.774L268.97 307H218.438L211.889 262.027L209.006 305.847L157.113 305.27L162.625 247.739L167.313 221.072V221.066L168.016 217.053H260.673L260.794 218.506L262.051 233.636Z" fill="#2F2E41"/>
<path d="M128.51 276.085C133.862 277.06 139.442 271.033 140.974 262.623C141.645 258.942 141.429 255.414 140.525 252.529L141.345 247.681L155.116 182.465C155.116 182.465 180.474 131.74 180.473 122.934C180.473 114.128 173.138 109.809 173.138 109.809L163.213 109.902L132.087 185.922L126.482 242.098L125.575 249.806C123.711 252.186 122.265 255.411 121.594 259.092C120.062 267.502 123.158 275.11 128.51 276.085Z" fill="#FFB6B6"/>
<path d="M229.474 78.3853L220.249 57.0518L190.267 62.241L188.249 87.3405L229.474 78.3853Z" fill="#FFB6B6"/>
<path opacity="0.1" d="M229.474 78.3853L220.249 57.0518L190.267 62.241L188.249 87.3405L229.474 78.3853Z" fill="black"/>
<path d="M294.628 122.782C294.628 122.782 273.295 82.998 269.259 78.9619C267.462 77.1652 264.638 77.1402 262.055 77.6638L232.357 67.4303L222.291 61.7745L221.628 72.5346L188.581 78.4662C188.765 71.9042 189.69 69.4083 189.69 69.4083L177.582 83.5746L153.942 95.1062L153.955 95.21C152.22 95.8156 150.576 96.8518 149.33 98.5657C144.717 104.908 132.032 182.17 132.032 182.17L159.132 187.936L162.82 164.792L165.474 185.629L167.492 224.549C167.492 224.549 204.393 256.261 222.267 244.729C240.141 233.197 262.051 233.774 262.051 233.774L262.598 215.734C262.987 215.112 263.205 214.747 263.205 214.747L262.628 150.755V133.728C267.02 139.847 272.321 145.11 278.484 147.575C298.664 155.647 294.628 122.782 294.628 122.782V122.782Z" fill="#E6E6E6"/>
<path d="M202.124 65.9946C217.357 65.9946 229.707 53.6453 229.707 38.4118C229.707 23.1782 217.357 10.829 202.124 10.829C186.89 10.829 174.541 23.1782 174.541 38.4118C174.541 53.6453 186.89 65.9946 202.124 65.9946Z" fill="#FFB6B6"/>
<path d="M221.912 46.207C221.912 46.207 224.31 37.8122 229.707 38.4118C235.103 39.0115 236.303 34.2144 235.103 31.8159C233.904 29.4174 231.506 17.4249 231.506 17.4249C231.506 17.4249 232.705 9.03015 225.509 7.8309C218.314 6.63165 215.915 5.4324 214.716 3.03389C213.517 0.63539 195.528 -1.76311 189.532 1.83464C183.536 5.4324 178.739 12.3352 174.541 14.2804C170.344 16.2257 166.746 19.8234 169.145 25.8197C171.543 31.8159 175.022 43.5433 175.022 43.5433C175.022 43.5433 181.137 41.41 182.336 45.0077C183.536 48.6055 178.739 43.8085 184.735 34.2144C190.731 24.6204 190.731 15.0264 200.325 18.6242C209.919 22.2219 220.712 21.0227 219.513 28.2182C218.314 35.4137 221.912 46.207 221.912 46.207V46.207Z" fill="#2F2E41"/>
<path d="M220.225 264.872H10.7436C4.81945 264.872 0 260.053 0 254.129V142.853C0 136.929 4.81945 132.109 10.7436 132.109H220.225C226.149 132.109 230.969 136.929 230.969 142.853V254.129C230.969 260.053 226.149 264.872 220.225 264.872Z" fill="white"/>
<path d="M220.225 264.872H10.7436C4.81945 264.872 0 260.053 0 254.129V142.853C0 136.929 4.81945 132.109 10.7436 132.109H220.225C226.149 132.109 230.969 136.929 230.969 142.853V254.129C230.969 260.053 226.149 264.872 220.225 264.872ZM10.7436 133.903C5.80892 133.903 1.7941 137.918 1.7941 142.853V254.129C1.7941 259.064 5.80892 263.078 10.7436 263.078H220.225C225.16 263.078 229.174 259.064 229.174 254.129V142.853C229.174 137.918 225.16 133.903 220.225 133.903H10.7436Z" fill="#3F3D56"/>
<path d="M204.057 145.565C205.543 145.565 206.748 144.36 206.748 142.874C206.748 141.387 205.543 140.183 204.057 140.183C202.571 140.183 201.366 141.387 201.366 142.874C201.366 144.36 202.571 145.565 204.057 145.565Z" fill="#3F3D56"/>
<path d="M211.234 145.565C212.72 145.565 213.925 144.36 213.925 142.874C213.925 141.387 212.72 140.183 211.234 140.183C209.747 140.183 208.542 141.387 208.542 142.874C208.542 144.36 209.747 145.565 211.234 145.565Z" fill="#3F3D56"/>
<path d="M218.41 145.565C219.896 145.565 221.101 144.36 221.101 142.874C221.101 141.387 219.896 140.183 218.41 140.183C216.924 140.183 215.719 141.387 215.719 142.874C215.719 144.36 216.924 145.565 218.41 145.565Z" fill="#3F3D56"/>
<path d="M15.2499 186.381C14.5079 186.381 13.9043 186.984 13.9043 187.726C13.9043 188.088 14.044 188.423 14.2976 188.67C14.5534 188.932 14.8885 189.072 15.2499 189.072H216.616C217.358 189.072 217.961 188.468 217.961 187.726C217.961 187.364 217.822 187.03 217.568 186.783C217.312 186.521 216.977 186.381 216.616 186.381H15.2499Z" fill="#E6E6E6"/>
<path d="M191.498 185.932V189.52H15.2499C14.7566 189.52 14.308 189.323 13.9851 188.991C13.6531 188.668 13.4558 188.22 13.4558 187.726C13.4558 186.739 14.2632 185.932 15.2499 185.932H191.498Z" fill="#009EDD"/>
<path d="M214.373 179.204H196.432C194.454 179.204 192.844 177.595 192.844 175.616C192.844 173.637 194.454 172.028 196.432 172.028H214.373C216.352 172.028 217.961 173.637 217.961 175.616C217.961 177.595 216.352 179.204 214.373 179.204Z" fill="#E6E6E6"/>
<path d="M96.8595 160.366H16.5953C14.6168 160.366 13.0071 158.757 13.0071 156.778C13.0071 154.799 14.6168 153.19 16.5953 153.19H96.8595C98.838 153.19 100.448 154.799 100.448 156.778C100.448 158.757 98.838 160.366 96.8595 160.366Z" fill="#E6E6E6"/>
<path d="M15.2499 226.748C14.5079 226.748 13.9043 227.351 13.9043 228.093C13.9043 228.455 14.044 228.79 14.2976 229.037C14.5534 229.299 14.8885 229.439 15.2499 229.439H216.616C217.358 229.439 217.961 228.835 217.961 228.093C217.961 227.732 217.822 227.397 217.568 227.15C217.312 226.888 216.977 226.748 216.616 226.748H15.2499Z" fill="#E6E6E6"/>
<path d="M122.426 226.299V229.888H15.2499C14.7566 229.888 14.308 229.69 13.9851 229.358C13.6531 229.035 13.4558 228.587 13.4558 228.093C13.4558 227.107 14.2632 226.299 15.2499 226.299H122.426Z" fill="#009EDD"/>
<path d="M214.373 219.571H196.432C194.454 219.571 192.844 217.962 192.844 215.983C192.844 214.004 194.454 212.395 196.432 212.395H214.373C216.352 212.395 217.961 214.004 217.961 215.983C217.961 217.962 216.352 219.571 214.373 219.571Z" fill="#E6E6E6"/>
<path d="M245.781 68.1177C261.298 68.1177 273.876 55.8043 273.876 40.6149C273.876 25.4255 261.298 13.1121 245.781 13.1121C230.265 13.1121 217.687 25.4255 217.687 40.6149C217.687 55.8043 230.265 68.1177 245.781 68.1177Z" fill="#009EDD"/>
<path d="M255.317 26.7423C251.576 33.553 247.836 40.3637 244.096 47.1744C241.712 42.9625 239.341 38.7431 236.951 34.5345C236.126 33.081 233.881 34.3883 234.709 35.8455C237.479 40.7242 240.22 45.6192 242.991 50.4979C243.464 51.3321 244.765 51.3514 245.233 50.4979C249.342 43.0164 253.451 35.5348 257.559 28.0533C258.365 26.5873 256.122 25.2752 255.317 26.7423Z" fill="white"/>
<path d="M284.565 113.109L256.574 99.7188C256.574 99.7188 255.449 90.7566 250.2 87.56C249.308 85.4309 248.281 83.092 247.348 81.2387C245.042 76.6556 248.502 68.0069 245.619 68.0069C242.736 68.0069 238.474 77.1027 238.7 79.5385C238.873 81.4083 240.418 84.6728 240.738 87.5304C237.222 88.8563 234.386 91.1288 232.521 92.9382C230.908 94.5041 230.308 96.8402 230.939 98.9985C232.766 105.253 237.334 118.169 243.889 118.169C252.538 118.169 254.844 116.44 254.844 116.44C254.844 116.44 272.718 138.926 285.979 140.656C299.241 142.386 284.565 113.109 284.565 113.109V113.109Z" fill="#FFB6B6"/>
</svg>
